HIERARCHY
ROOT Hips
{
	OFFSET 0.000000 0.000000 0.000000
	CHANNELS 6 Xposition Yposition Zposition Zrotation Yrotation Xrotation 
	JOINT LeftUpLeg_virtual
	{
		OFFSET 0.000000 0.000000 0.000000
		CHANNELS 3 Zrotation Yrotation Xrotation
		JOINT LeftUpLeg
		{
			OFFSET 8.479694 -4.795517 -0.379053
			CHANNELS 3 Zrotation Yrotation Xrotation
			JOINT LeftLeg
			{
				OFFSET 0.485052 -32.551468 0.112863
				CHANNELS 3 Zrotation Yrotation Xrotation
				JOINT LeftFoot
				{
					OFFSET 0.438033 -32.635670 -3.012641
					CHANNELS 3 Zrotation Yrotation Xrotation
					JOINT LeftToeBase
					{
						OFFSET 0.970169 -13.225353 11.864223
						CHANNELS 3 Zrotation Yrotation Xrotation
						End Site
						{
							OFFSET 0.000000 0.000000 0.000000
						}
					}
				}
			}
		}
	}
	JOINT RightUpLeg_virtual
	{
		OFFSET 0.000000 0.000000 0.000000
		CHANNELS 3 Zrotation Yrotation Xrotation
		JOINT RightUpLeg
		{
			OFFSET -8.479694 -4.795517 -0.379053
			CHANNELS 3 Zrotation Yrotation Xrotation
			JOINT RightLeg
			{
				OFFSET -0.484100 -32.551483 0.112903
				CHANNELS 3 Zrotation Yrotation Xrotation
				JOINT RightFoot
				{
					OFFSET -0.438985 -32.635651 -3.012681
					CHANNELS 3 Zrotation Yrotation Xrotation
					JOINT RightToeBase
					{
						OFFSET -0.970169 -13.225354 11.864223
						CHANNELS 3 Zrotation Yrotation Xrotation
						End Site
						{
							OFFSET 0.000000 0.000000 0.000000
						}
					}
				}
			}
		}
	}
	JOINT Spine_virtual
	{
		OFFSET 0.000000 0.000000 0.000000
		CHANNELS 3 Zrotation Yrotation Xrotation
		JOINT Spine
		{
			OFFSET 0.000000 7.722015 1.166203
			CHANNELS 3 Zrotation Yrotation Xrotation
			JOINT Spine1
			{
				OFFSET 0.000000 12.024086 0.248766
				CHANNELS 3 Zrotation Yrotation Xrotation
				JOINT Spine2
				{
					OFFSET -0.000000 11.503036 -0.491240
					CHANNELS 3 Zrotation Yrotation Xrotation
					JOINT Neck_virtual
					{
						OFFSET 0.000000 0.000000 0.000000
						CHANNELS 3 Zrotation Yrotation Xrotation
						JOINT Neck
						{
							OFFSET 0.000000 18.430687 -3.123054
							CHANNELS 3 Zrotation Yrotation Xrotation
							JOINT Head
							{
								OFFSET -0.000000 9.051071 1.034021
								CHANNELS 3 Zrotation Yrotation Xrotation
								End Site
								{
									OFFSET 0.000000 0.000000 0.000000
								}
							}
						}
					}
					JOINT LeftShoulder_virtual
					{
						OFFSET 0.000000 0.000000 0.000000
						CHANNELS 3 Zrotation Yrotation Xrotation
						JOINT LeftShoulder
						{
							OFFSET 6.197824 13.665230 -4.064723
							CHANNELS 3 Zrotation Yrotation Xrotation
							JOINT LeftArm
							{
								OFFSET 7.778132 -0.187073 -1.709282
								CHANNELS 3 Zrotation Yrotation Xrotation
								JOINT LeftForeArm
								{
									OFFSET 21.954697 0.000000 -2.041093
									CHANNELS 3 Zrotation Yrotation Xrotation
									JOINT LeftHand
									{
										OFFSET 22.992908 0.000000 -0.870901
										CHANNELS 3 Zrotation Yrotation Xrotation
										End Site
										{
											OFFSET 0.000000 0.000000 0.000000
										}
									}
								}
							}
						}
					}
					JOINT RightShoulder_virtual
					{
						OFFSET 0.000000 0.000000 0.000000
						CHANNELS 3 Zrotation Yrotation Xrotation
						JOINT RightShoulder
						{
							OFFSET -6.197824 13.665230 -4.064723
							CHANNELS 3 Zrotation Yrotation Xrotation
							JOINT RightArm
							{
								OFFSET -7.778132 -0.187073 -1.709282
								CHANNELS 3 Zrotation Yrotation Xrotation
								JOINT RightForeArm
								{
									OFFSET -21.954697 0.000000 -2.041093
									CHANNELS 3 Zrotation Yrotation Xrotation
									JOINT RightHand
									{
										OFFSET -22.992908 0.000000 -0.870901
										CHANNELS 3 Zrotation Yrotation Xrotation
										End Site
										{
											OFFSET 0.000000 0.000000 0.000000
										}
									}
								}
							}
						}
					}
				}
			}
		}
	}
}
MOTION
Frames: 13
Frame Time: 0.033333
-14.998939 81.286186 -16.514164 -179.878769 -4.518368 -179.718232 -3.485527 0.523671 16.711888 6.212261 1.370413 -21.613997 2.757183 3.670658 26.628338 1.326814 -6.737067 -12.307995 0.000000 0.000000 0.000000 2.345457 -1.116652 17.549273 -6.539282 -0.446787 -24.052071 -0.687211 6.371340 28.531968 12.784970 1.907743 -10.595923 0.000000 0.000000 0.000000 2.110803 2.592820 4.065702 -0.812307 -0.751363 -6.514442 -0.275327 -2.248711 7.303629 -0.030630 -0.030647 0.027540 -0.435509 -0.769686 7.333730 -0.952316 1.928928 0.888957 0.000000 0.000000 0.000000 1.381755 -0.100296 4.368246 -12.408157 -3.244959 2.128958 -56.021314 -6.649950 -4.352862 4.085246 -20.633911 3.041620 0.000000 0.000000 0.000000 -3.418820 1.362798 3.701910 29.362980 -1.362186 7.211931 47.809220 3.401292 4.307910 -1.774522 28.513909 -1.483152 0.000000 0.000000 0.000000 
-15.018064 81.289185 -16.514214 -179.830002 -4.534286 -179.630082 -3.584250 0.643335 16.785608 6.069645 1.493807 -21.487994 2.852090 4.220849 26.738521 1.701768 -6.187773 -12.104963 0.000000 0.000000 0.000000 2.459854 -1.371659 17.604968 -6.648995 -0.646731 -23.884263 -0.776944 6.284774 28.469924 12.645350 1.656997 -10.671022 0.000000 0.000000 0.000000 2.180927 2.474424 4.001638 -0.768306 -0.741512 -6.556499 -0.247711 -2.278264 7.283768 0.013616 -0.058232 0.090443 -0.507046 -0.821601 7.292200 -0.960296 1.923992 0.823164 0.000000 0.000000 0.000000 1.304008 -0.145813 4.398749 -12.461390 -3.206446 2.103900 -56.057784 -6.721911 -4.451913 4.050957 -20.675978 2.967055 0.000000 0.000000 0.000000 -3.478924 1.360351 3.646942 29.334375 -1.330303 7.180713 47.845639 3.391816 4.372366 -1.700152 28.519226 -1.431036 0.000000 0.000000 0.000000 
-15.040985 81.286446 -16.534258 -179.843020 -4.406213 -179.618703 -3.622202 0.628991 16.819995 6.099698 1.457109 -21.533729 2.844175 4.324542 26.786359 1.701358 -6.084044 -12.079457 0.000000 0.000000 0.000000 2.507017 -1.449320 17.594986 -6.726811 -0.680919 -23.885938 -0.757519 6.418409 28.406224 12.797100 1.671945 -10.698725 0.000000 0.000000 0.000000 2.184757 2.332536 4.012216 -0.722008 -0.736439 -6.610360 -0.250857 -2.318478 7.268282 -0.007117 -0.084004 0.058659 -0.569934 -0.827500 7.367974 -0.992384 2.009252 0.857301 0.000000 0.000000 0.000000 1.320469 -0.079989 4.397625 -12.553976 -2.994182 2.101914 -56.148294 -6.903604 -4.312026 4.046905 -21.093448 2.722770 0.000000 0.000000 0.000000 -3.506509 1.447363 3.774485 29.499304 -1.247817 7.151335 47.801369 3.365778 4.424825 -1.800309 28.623499 -1.523938 0.000000 0.000000 0.000000 
-15.052058 81.284973 -16.571926 -179.857541 -4.299793 -179.596477 -3.691210 0.654869 16.900823 6.158591 1.419050 -21.628224 2.841320 4.429506 26.839920 1.663251 -6.000279 -12.051923 0.000000 0.000000 0.000000 2.482767 -1.481172 17.621798 -6.731735 -0.712382 -23.929721 -0.708663 6.544852 28.388853 12.898159 1.582923 -10.715117 0.000000 0.000000 0.000000 2.174682 2.287495 3.922556 -0.695453 -0.776248 -6.575507 -0.293846 -2.378333 7.335960 -0.042039 0.040590 0.072522 -0.538764 -0.741134 7.296124 -0.866879 2.002611 0.831877 0.000000 0.000000 0.000000 1.317088 0.052274 4.318230 -12.700455 -2.848556 2.033439 -56.023998 -7.391164 -3.806061 3.812728 -21.740400 2.706913 0.000000 0.000000 0.000000 -3.491916 1.467387 3.689371 29.656845 -1.171728 7.118748 47.715401 3.271946 4.628383 -1.926708 28.675989 -1.612808 0.000000 0.000000 0.000000 
-15.049745 81.286652 -16.617760 -179.863128 -4.222656 -179.576356 -3.775997 0.701343 17.010262 6.269974 1.384599 -21.742750 2.812676 4.526053 26.899686 1.604042 -5.933056 -12.023656 0.000000 0.000000 0.000000 2.464444 -1.494228 17.672735 -6.712237 -0.730235 -24.018222 -0.652827 6.649644 28.434115 12.978339 1.466317 -10.689391 0.000000 0.000000 0.000000 2.158392 2.410178 4.002665 -0.671649 -0.660645 -6.681621 -0.291504 -2.257441 7.310153 -0.056837 -0.076754 0.087722 -0.539047 -0.770227 7.319010 -0.645981 1.987172 0.859228 0.000000 0.000000 0.000000 1.317156 -0.110450 4.343894 -12.746982 -2.838073 1.993427 -55.868622 -8.003433 -2.769210 3.594525 -22.626035 2.684061 0.000000 0.000000 0.000000 -3.502715 1.361778 3.613667 29.842234 -1.179385 7.155514 47.674420 3.236772 4.626305 -1.991394 28.781987 -1.626765 0.000000 0.000000 0.000000 
-15.035997 81.290794 -16.669781 -179.850356 -4.226345 -179.557081 -3.847588 0.756507 17.121059 6.436366 1.345036 -21.862083 2.753356 4.592576 26.955024 1.524992 -5.889137 -11.997518 0.000000 0.000000 0.000000 2.446186 -1.489755 17.737267 -6.661632 -0.756164 -24.124365 -0.589539 6.724928 28.542053 13.023977 1.316696 -10.636212 0.000000 0.000000 0.000000 2.144547 2.431088 4.084766 -0.672254 -0.665673 -6.759880 -0.294553 -2.247161 7.310468 -0.055767 -0.042639 0.141992 -0.535849 -0.740115 7.345544 -0.371117 1.950387 0.833157 0.000000 0.000000 0.000000 1.304237 -0.167306 4.307682 -12.886118 -2.963305 2.067414 -55.522898 -8.716570 -1.121247 3.392463 -23.716449 2.654597 0.000000 0.000000 0.000000 -3.565907 1.293669 3.594712 30.024108 -1.118171 7.176246 47.616073 3.242301 4.882070 -2.223502 28.887879 -1.806316 0.000000 0.000000 0.000000 
-15.031953 81.297691 -16.727777 -179.838649 -4.298608 -179.538243 -3.858939 0.834692 17.226091 6.567642 1.315609 -21.991512 2.688375 4.665499 27.013255 1.397214 -5.895829 -11.963584 0.000000 0.000000 0.000000 2.439805 -1.465020 17.812742 -6.598529 -0.807418 -24.247259 -0.516821 6.788449 28.714494 13.033989 1.132254 -10.585202 0.000000 0.000000 0.000000 2.132261 2.338597 4.116652 -0.690304 -0.741238 -6.764947 -0.292111 -2.302437 7.279736 -0.028511 -0.074323 0.193275 -0.548689 -0.887981 7.353243 -0.181293 2.024252 0.670278 0.000000 0.000000 0.000000 1.225343 -0.087587 4.328690 -12.942394 -3.004587 2.130673 -55.176645 -9.535423 0.754944 3.141205 -24.746197 2.822004 0.000000 0.000000 0.000000 -3.603172 1.322891 3.656678 30.163905 -0.864572 7.191706 47.447016 3.373727 5.080246 -2.104021 29.143017 -1.592100 0.000000 0.000000 0.000000 
-15.033375 81.299858 -16.760216 -179.818704 -4.398498 -179.521414 -3.800236 0.958971 17.307252 6.663396 1.298453 -22.140830 2.609335 4.741908 27.090142 1.228311 -5.946801 -11.935715 0.000000 0.000000 0.000000 2.407722 -1.380457 17.877983 -6.509792 -0.845521 -24.383632 -0.471968 6.851102 28.973529 12.969586 0.889876 -10.525461 0.000000 0.000000 0.000000 2.183941 2.537142 4.108063 -0.724154 -0.760643 -6.633102 -0.286099 -2.261079 7.360366 -0.002269 -0.064238 0.103598 -0.587914 -0.996900 7.346632 0.094958 2.008309 0.469399 0.000000 0.000000 0.000000 1.178883 -0.240177 4.274028 -13.061489 -3.160639 2.171149 -54.665853 -10.331476 2.069326 2.871234 -25.736416 2.830296 0.000000 0.000000 0.000000 -3.644681 1.223120 3.548343 30.354522 -0.857638 7.251182 47.338156 3.446401 5.416492 -2.417515 29.449682 -1.838505 0.000000 0.000000 0.000000 
-15.026493 81.304771 -16.752684 -179.848908 -4.509775 -179.520963 -3.733360 1.114141 17.371495 6.709290 1.267714 -22.323488 2.517943 4.751349 27.199936 1.057756 -5.988032 -11.888106 0.000000 0.000000 0.000000 2.581127 -1.303546 17.928065 -6.633673 -1.011312 -24.542886 -0.427880 6.875727 29.285976 12.994800 0.756762 -10.511901 0.000000 0.000000 0.000000 2.220243 2.620923 4.228460 -0.775690 -0.864104 -6.488523 -0.299125 -2.304555 7.325802 -0.079328 -0.099355 0.116879 -0.528625 -0.899670 7.393635 0.330230 1.998923 0.211982 0.000000 0.000000 0.000000 1.211332 -0.208220 4.193744 -13.058777 -3.180288 2.193760 -54.373288 -10.977573 2.972497 2.730867 -26.542549 2.758471 0.000000 0.000000 0.000000 -3.608241 1.318530 3.495351 30.417541 -0.668439 7.316651 47.202242 3.494782 5.725204 -2.504604 30.064181 -1.818398 0.000000 0.000000 0.000000 
-14.996924 81.320892 -16.649967 -179.835835 -4.653246 -179.536727 -3.646726 1.219574 17.415229 6.762536 1.218550 -22.594829 2.415563 4.712719 27.344842 0.897886 -6.003799 -11.824080 0.000000 0.000000 0.000000 2.651920 -1.212311 17.959841 -6.606403 -1.165749 -24.743904 -0.376324 6.923159 29.579797 12.913168 0.591405 -10.433038 0.000000 0.000000 0.000000 2.309661 2.745917 4.373240 -0.839129 -0.862420 -6.192251 -0.259915 -2.242347 7.308870 -0.037836 -0.054323 0.112039 -0.559953 -1.022412 7.322221 0.550556 1.933320 -0.351637 0.000000 0.000000 0.000000 1.160463 -0.269372 4.151553 -13.228825 -3.406496 2.251872 -53.768905 -11.657874 3.329588 2.395464 -27.204517 3.013482 0.000000 0.000000 0.000000 -3.643169 1.131404 3.443698 30.221654 -0.610090 7.273628 47.259653 3.623329 6.363602 -2.601068 30.719500 -1.819919 0.000000 0.000000 0.000000 
-14.937676 81.352982 -16.395161 -179.813473 -4.847687 -179.552587 -3.567335 1.236334 17.430935 6.820200 1.129195 -22.981505 2.313887 4.624323 27.519290 0.777588 -5.953548 -11.708965 0.000000 0.000000 0.000000 2.757498 -1.161492 17.951528 -6.568778 -1.379538 -25.021430 -0.307768 6.978823 29.828218 12.807762 0.482364 -10.319022 0.000000 0.000000 0.000000 2.448416 2.749217 4.599018 -0.897555 -0.916226 -5.729928 -0.290974 -2.215528 7.279862 -0.041734 -0.072660 0.113371 -0.473833 -0.907066 7.143642 0.719700 1.883280 -1.231629 0.000000 0.000000 0.000000 1.188375 -0.101989 4.136056 -13.194664 -3.715898 2.351649 -53.479404 -12.266758 3.465071 2.272910 -27.722905 3.021127 0.000000 0.000000 0.000000 -3.572528 1.227358 3.390254 29.996343 -0.511115 7.305559 47.273262 3.742256 6.961243 -2.759276 31.442325 -1.930387 0.000000 0.000000 0.000000 
-14.836379 81.406364 -15.937256 -179.833062 -5.098399 -179.588090 -3.536626 1.184441 17.439247 6.879453 0.983938 -23.494847 2.209639 4.471639 27.703701 0.696543 -5.831212 -11.497103 0.000000 0.000000 0.000000 3.006580 -1.178697 17.915374 -6.660486 -1.736795 -25.429233 -0.241968 7.055106 30.044336 12.746585 0.503537 -10.201355 0.000000 0.000000 0.000000 2.522515 2.540282 4.968659 -0.955611 -0.890708 -5.068993 -0.265130 -2.109016 7.265605 -0.044646 -0.011342 0.119430 -0.441361 -0.862722 6.978835 0.811474 1.790450 -2.277384 0.000000 0.000000 0.000000 1.197808 -0.112392 4.010901 -13.078223 -4.013949 2.508433 -53.204121 -12.833770 3.375770 2.178154 -28.123499 3.056117 0.000000 0.000000 0.000000 -3.515329 1.200685 3.284667 29.572899 -0.267893 7.345801 47.417588 3.884892 7.801908 -3.117014 32.163081 -2.254623 0.000000 0.000000 0.000000 
-14.676829 81.472176 -15.252035 -179.785564 -5.449626 -179.621503 -3.508321 1.105855 17.443776 7.023516 0.795585 -24.158251 2.095397 4.310508 27.887188 0.593556 -5.715082 -11.190339 0.000000 0.000000 0.000000 2.988428 -1.096508 17.876509 -6.372397 -2.006167 -26.017514 -0.152244 7.207073 30.213574 12.433043 0.427241 -9.969314 0.000000 0.000000 0.000000 2.713958 2.593224 5.452501 -0.959978 -0.995466 -4.150396 -0.291387 -2.126590 7.295349 -0.032368 -0.086160 0.057251 -0.395942 -0.775342 6.922465 0.900755 1.609288 -3.535132 0.000000 0.000000 0.000000 1.194914 -0.050914 3.891972 -12.782188 -4.493216 2.725383 -53.043451 -13.267733 3.159991 2.079049 -28.434614 3.196836 0.000000 0.000000 0.000000 -3.506840 1.397381 3.246965 28.993637 -0.002978 7.470085 47.686110 4.178747 8.604356 -3.207290 32.952794 -2.453753 0.000000 0.000000 0.000000 
